<?xml version="1.0" encoding="utf-8"?>
<!-- Generator: Adobe Illustrator 20.0.0, SVG Export Plug-In . SVG Version: 6.00 Build 0)  -->
<svg version="1.1" id="Слой_1" xmlns="http://www.w3.org/2000/svg" xmlns:xlink="http://www.w3.org/1999/xlink" x="0px" y="0px"
	 viewBox="0 0 1503.462 535.162" style="enable-background:new 0 0 1503.462 535.162;" xml:space="preserve">
<style type="text/css">
	.st0{stroke:#000000;stroke-miterlimit:10;}
</style>
<path class="st0" d="M1.304,34.511C0.925,25.806,1.426,4.367,42.195,3.304c39.469-1.029,99.353-4.864,145.382-1.355
	c26.331,2.007,29.552,18.197,36.338,25.437c12.125,12.937,95.057,5.436,95.057,5.436s27.158-2.62,52.893,1.894
	c18.962,3.326,19.685,9.421,28.134,21.071c12.535,17.285,77.856,12.355,119.033,11.622c22.759-0.405,41.656,0.927,46.996,9.381
	c15.435,24.436,153.991,10.233,183.114-4.416c22.853-11.496,11.01-18.034,26.358-27.604
	c39.529-24.647,347.235,16.991,667.226,16.991c61.018,0,58.295,76.041,59.202,106.487c2.815,94.491-1,366.413-1,366.413H1.426
	C1.426,534.662-0.574,184.297,1.304,34.511z"/>
</svg>
