<?xml version="1.0" encoding="utf-8"?>
<!-- Generator: Adobe Illustrator 20.0.0, SVG Export Plug-In . SVG Version: 6.00 Build 0)  -->
<svg version="1.1" id="Слой_1" xmlns="http://www.w3.org/2000/svg" xmlns:xlink="http://www.w3.org/1999/xlink" x="0px" y="0px"
	 viewBox="0 0 297 577" style="enable-background:new 0 0 297 577;" xml:space="preserve">
<style type="text/css">
	.st0{fill:#EFEFEF;}
	.st1{fill:#DDDDDD;}
	.st2{fill:#FFFFFF;}
	.st3{fill:none;stroke:#EFEFEF;stroke-width:2;stroke-miterlimit:10;}
</style>
<g>
	<g>
		<path class="st0" d="M49.912,538.659l-20.912-18.658C29,503.653,30.291,52.069,28.848,41.333
			c-0.135-3.585-0.069-7.115,0.175-10.596C12.335,33.904,0,47.033,0,63.751v478.255C0,561.258,16.352,577,36.878,577h199.956
			C257.36,577,274,561.258,274,542.007C274,542.007,54.413,542.71,49.912,538.659z"/>
	</g>
	<g>
		<g>
			<path class="st1" d="M162.841,509h-8.713c-2.521,0-4.128,2.297-4.128,4.673v8.13c0,2.373,1.607,4.197,4.128,4.197h8.713
				c2.52,0,4.159-1.824,4.159-4.197v-8.13C167,511.297,165.36,509,162.841,509z M166,522.036c0,1.476-1.46,1.964-3.159,1.964h-8.714
				c-1.698,0-3.127-0.488-3.127-1.964v-8.599c0-1.476,1.429-2.438,3.127-2.438h8.714c1.699,0,3.159,0.962,3.159,2.438V522.036z"/>
			<g>
				<g>
					<path class="st2" d="M22,513.007C22,532.258,38.352,548,58.878,548h199.956C279.36,548,296,532.258,296,513.007V34.751
						C296,15.5,279.36,1,258.834,1H251h-43H58.878C38.352,1,22,15.5,22,34.751V513.007z M158.734,532.291
						c-8.432,0-15.267-6.412-15.267-14.32c0-7.907,6.835-14.317,15.267-14.317c8.432,0,15.267,6.41,15.267,14.317
						C174.001,525.879,167.166,532.291,158.734,532.291z M277,485H40V48h237V485z"/>
				</g>
				<g>
					<path class="st3" d="M22,513.007C22,532.258,38.352,548,58.878,548h199.956C279.36,548,296,532.258,296,513.007V34.751
						C296,15.5,279.36,1,258.834,1H251h-43H58.878C38.352,1,22,15.5,22,34.751V513.007z M158.734,532.291
						c-8.432,0-15.267-6.412-15.267-14.32c0-7.907,6.835-14.317,15.267-14.317c8.432,0,15.267,6.41,15.267,14.317
						C174.001,525.879,167.166,532.291,158.734,532.291z M277,485H40V48h237V485z"/>
				</g>
			</g>
		</g>
	</g>
</g>
</svg>
